<svg xmlns="http://www.w3.org/2000/svg" width="20.775" height="20.774" viewBox="0 0 20.775 20.774">
  <path id="user" d="M19.306,14.934a13.351,13.351,0,0,0-3.257-1.957,17.712,17.712,0,0,1-2.5-1.4A8.783,8.783,0,0,0,15.725,6.3a8.3,8.3,0,0,0-.636-3.811C14.516,1.353,13.234,0,10.387,0s-4.129,1.353-4.7,2.488A8.29,8.29,0,0,0,5.049,6.3a8.777,8.777,0,0,0,2.178,5.28,17.626,17.626,0,0,1-2.5,1.4,13.361,13.361,0,0,0-3.257,1.957A6.386,6.386,0,0,0,0,19.017a1.731,1.731,0,0,0,1.73,1.757H19.043a1.731,1.731,0,0,0,1.731-1.758A6.388,6.388,0,0,0,19.306,14.934Zm.046,4.413a.433.433,0,0,1-.309.129H1.73a.433.433,0,0,1-.308-.129.438.438,0,0,1-.125-.31,5.185,5.185,0,0,1,1.088-3.185,13.191,13.191,0,0,1,2.919-1.714,14.24,14.24,0,0,0,2.813-1.615l.876-.829-.761-.935A7.514,7.514,0,0,1,6.348,6.3a7.177,7.177,0,0,1,.5-3.226C7.44,1.9,8.631,1.3,10.387,1.3s2.947.6,3.542,1.775a7.181,7.181,0,0,1,.5,3.226,7.509,7.509,0,0,1-1.887,4.461l-.761.935.876.828a14.27,14.27,0,0,0,2.813,1.615,13.133,13.133,0,0,1,2.919,1.714,5.06,5.06,0,0,1,1.088,3.185A.433.433,0,0,1,19.352,19.347Z" transform="translate(0)" fill="#fff" opacity="0.998"/>
</svg>
